<svg width="47" height="47" viewBox="0 0 47 47" fill="none" xmlns="http://www.w3.org/2000/svg">
<g filter="url(#filter0_d_168_641)">
<rect x="4" y="0.126709" width="38.8732" height="38.8732" rx="6" fill="white"/>
<path d="M18.2219 17.6671C18.2219 17.1457 18.6272 16.719 19.1226 16.719H26.3284C26.8238 16.719 27.2291 17.1457 27.2291 17.6671C27.2291 18.1886 26.8238 18.6152 26.3284 18.6152H19.1226C18.6272 18.6152 18.2219 18.1886 18.2219 17.6671Z" fill="#4F92FF"/>
<path d="M19.091 20.9855C18.613 20.9855 18.2219 21.3055 18.2219 21.6966C18.2219 22.0877 18.613 22.4077 19.091 22.4077H22.5675C23.0455 22.4077 23.4366 22.0877 23.4366 21.6966C23.4366 21.3055 23.0455 20.9855 22.5675 20.9855H19.091Z" fill="#4F92FF"/>
<path fill-rule="evenodd" clip-rule="evenodd" d="M22.7254 7.23767C16.0509 7.23767 10.637 12.6172 10.637 19.2659C10.637 25.906 15.999 31.4149 22.6908 31.4149H33.9504C34.2353 31.4149 34.4943 31.2767 34.6584 31.0436C34.8224 30.8105 34.857 30.5169 34.762 30.2579L33.0351 25.5519C34.1662 23.7213 34.8138 21.5714 34.8138 19.2659C34.8138 12.6172 29.3999 7.23767 22.7254 7.23767ZM12.3639 19.2659C12.3639 13.5842 17.0007 8.96462 22.7254 8.96462C28.4501 8.96462 33.0869 13.5842 33.0869 19.2659C33.0869 21.3728 32.448 23.3328 31.36 24.9648C31.2046 25.1979 31.1701 25.4829 31.265 25.742L32.7156 29.688H22.6908C16.9747 29.688 12.3639 24.9735 12.3639 19.2659Z" fill="#4F92FF"/>
<path d="M39.3875 33.7394L39.3873 33.7394L39.3899 33.7463C39.4196 33.8227 39.4391 33.9016 39.4484 33.9812L39.5478 33.9695C39.5685 34.1464 39.5438 34.3267 39.4737 34.4947L39.3814 34.4562C39.3508 34.5294 39.3106 34.6002 39.2608 34.667C39.2089 34.7365 39.1495 34.7989 39.084 34.8533L39.1478 34.9303C39.0042 35.0495 38.8336 35.1338 38.648 35.1762L38.6257 35.0787C38.5432 35.0976 38.4572 35.1074 38.3692 35.1074H37.4033V35.2074H35.4715V35.1074H33.5397V35.2074H31.6079V35.1074H29.6761V35.2074H27.7444V35.1074H25.8126V35.2074H23.8808V35.1074H22.9149C22.562 35.1074 22.2119 35.0968 21.8648 35.076L21.8588 35.1758C21.147 35.1331 20.4478 35.0475 19.764 34.9217L19.7821 34.8234C19.0865 34.6955 18.4069 34.5258 17.7462 34.3173L17.7161 34.4127C17.0392 34.1991 16.382 33.9451 15.7476 33.6537L15.7894 33.5628C15.1491 33.2688 14.5321 32.9364 13.9417 32.5691L13.8888 32.654C13.288 32.2802 12.7145 31.8703 12.1715 31.4279L12.2347 31.3504C11.6902 30.9067 11.1768 30.43 10.6976 29.9238L10.625 29.9926C10.1399 29.4801 9.68972 28.9374 9.278 28.3683L9.35902 28.3097C8.94878 27.7425 8.57697 27.1489 8.24706 26.5324L8.15889 26.5796C7.82734 25.96 7.53781 25.3174 7.29376 24.6553L7.38759 24.6207C7.14689 23.9677 6.95075 23.2956 6.80254 22.6079L6.70478 22.629C6.55781 21.9471 6.45765 21.2499 6.40756 20.5409L6.50731 20.5338C6.48281 20.187 6.47036 19.8373 6.47036 19.4851C6.47036 19.1337 6.48284 18.785 6.50741 18.4394L6.40766 18.4323C6.458 17.7243 6.55874 17.0294 6.70653 16.3506L6.80424 16.3719C6.95359 15.6859 7.15134 15.0165 7.39398 14.367L7.30031 14.332C7.54665 13.6726 7.83896 13.0335 8.17362 12.4181L8.26147 12.4658C8.59455 11.8534 8.96988 11.2645 9.38389 10.7026L9.30338 10.6433C9.71874 10.0795 10.1727 9.54273 10.6618 9.03635L10.7337 9.10581C11.2163 8.60617 11.7332 8.13624 12.2809 7.6993L12.2186 7.62113C12.7643 7.18585 13.3404 6.78314 13.9435 6.41618L13.9955 6.50161C14.5876 6.14134 15.2059 5.81573 15.8472 5.52783L15.8062 5.4366C16.4412 5.15155 17.0984 4.90327 17.7749 4.69468L17.8043 4.79024C18.4646 4.58664 19.1432 4.42107 19.8374 4.2963L19.8197 4.19787C20.5023 4.07516 21.1998 3.99168 21.9093 3.95001L21.9152 4.04984C22.2614 4.02951 22.6106 4.01919 22.9623 4.01919C23.3141 4.01919 23.6632 4.02951 24.0095 4.04984L24.0154 3.95001C24.7249 3.99168 25.4224 4.07517 26.105 4.19787L26.0873 4.2963C26.7814 4.42108 27.4601 4.58664 28.1203 4.79024L28.1498 4.69468C28.8263 4.90327 29.4835 5.15155 30.1184 5.4366L30.0775 5.52783C30.7188 5.81573 31.3371 6.14134 31.9292 6.50161L31.9812 6.41618C32.5843 6.78314 33.1604 7.18585 33.7061 7.62113L33.6437 7.6993C34.1915 8.13624 34.7084 8.60617 35.1909 9.10581L35.2629 9.03635C35.7519 9.54273 36.2059 10.0795 36.6213 10.6433L36.5408 10.7026C36.9548 11.2645 37.3301 11.8534 37.6632 12.4658L37.7511 12.4181C38.0857 13.0335 38.378 13.6726 38.6244 14.332L38.5307 14.367C38.7733 15.0165 38.9711 15.6859 39.1204 16.3719L39.2181 16.3506C39.3659 17.0294 39.4667 17.7243 39.517 18.4323L39.4173 18.4394C39.4418 18.785 39.4543 19.1337 39.4543 19.4851C39.4543 19.8034 39.445 20.1027 39.4264 20.3864L39.5262 20.3929C39.4825 21.0594 39.3883 21.6422 39.2449 22.1823L39.1482 22.1567C38.9919 22.7454 38.7761 23.2834 38.5019 23.8261L38.5911 23.8712C38.3359 24.3763 38.0311 24.8842 37.678 25.4382L37.5937 25.3845C37.4387 25.6277 37.2743 25.8801 37.1004 26.1454L37.0747 26.1846L37.0884 26.2295L37.3758 27.1682L37.4714 27.1389L38.0462 29.0164L37.9506 29.0457L38.5253 30.9231L38.621 30.8939L39.1957 32.7713L39.1001 32.8006L39.3875 33.7394ZM34.9106 26.1737L34.9111 26.1736L34.9074 26.1639C34.8784 26.0895 34.8649 25.998 34.8663 25.8953L34.7663 25.8939C34.7691 25.6959 34.8225 25.4777 34.9024 25.2885L34.9945 25.3274C35.0354 25.2306 35.0829 25.1434 35.1329 25.0728C35.2379 24.9242 35.3386 24.7829 35.4353 24.6471C35.4823 24.5812 35.5283 24.5165 35.5735 24.453L35.492 24.3951C35.826 23.9252 36.1066 23.5235 36.3371 23.1335L36.4232 23.1844C36.6926 22.7288 36.896 22.2865 37.0372 21.7713L36.9408 21.7448C37.0587 21.3143 37.1322 20.8324 37.1646 20.2453L37.2645 20.2508C37.2776 20.0134 37.284 19.7593 37.284 19.4851C37.284 19.1181 37.2683 18.7545 37.2374 18.3948L37.1378 18.4033C37.0753 17.6755 36.9504 16.964 36.768 16.2736L36.8646 16.2481C36.6777 15.5406 36.431 14.8552 36.1297 14.1968L36.0388 14.2385C35.7382 13.5816 35.383 12.9519 34.9784 12.3542L35.0612 12.2982C34.6546 11.6977 34.1986 11.1295 33.6987 10.5986L33.6259 10.6672C33.1336 10.1444 32.5982 9.65811 32.025 9.2131L32.0863 9.13411C31.5163 8.69159 30.9092 8.28967 30.27 7.93309L30.2213 8.02042C29.5967 7.67201 28.9413 7.36716 28.2597 7.11036L28.2949 7.01678C27.6226 6.76348 26.9251 6.55663 26.2068 6.40049L26.1856 6.49821C25.4902 6.34703 24.7752 6.2437 24.0447 6.19213L24.0518 6.09238C23.6922 6.06699 23.3289 6.05406 22.9623 6.05406C22.5958 6.05406 22.2325 6.06699 21.8729 6.09238L21.8799 6.19213C21.1495 6.2437 20.4345 6.34703 19.7391 6.49821L19.7179 6.40049C18.9996 6.55663 18.3021 6.76348 17.6297 7.01678L17.665 7.11036C16.9834 7.36716 16.3279 7.67201 15.7034 8.02042L15.6547 7.93309C15.0155 8.28967 14.4083 8.69159 13.8383 9.13411L13.8997 9.2131C13.3265 9.65811 12.7911 10.1444 12.2988 10.6672L12.226 10.5986C11.726 11.1295 11.2701 11.6977 10.8635 12.2982L10.9463 12.3542C10.5417 12.9519 10.1865 13.5816 9.88589 14.2385L9.79496 14.1968C9.4937 14.8552 9.24694 15.5406 9.06003 16.2481L9.15671 16.2736C8.97431 16.964 8.84936 17.6755 8.78689 18.4033L8.68725 18.3948C8.65638 18.7545 8.64064 19.1181 8.64064 19.4851C8.64064 19.8531 8.65623 20.218 8.68683 20.5791L8.78647 20.5707C8.8483 21.3004 8.97188 22.0147 9.1523 22.7087L9.05552 22.7339C9.24019 23.4442 9.48394 24.1333 9.78156 24.7959L9.87278 24.755C10.1698 25.4164 10.521 26.0513 10.921 26.6546L10.8377 26.7099C11.2401 27.3167 11.6915 27.8917 12.1867 28.4295L12.2603 28.3617C12.7488 28.8923 13.2803 29.3865 13.8496 29.8392L13.7874 29.9175C14.3547 30.3687 14.9594 30.7789 15.5963 31.1433L15.646 31.0565C16.2694 31.4132 16.9241 31.7255 17.6052 31.9889L17.5692 32.0822C18.242 32.3424 18.9405 32.555 19.6601 32.7157L19.6819 32.6181C20.379 32.7737 21.096 32.8802 21.8288 32.9333L21.8216 33.033C22.1824 33.0592 22.547 33.0725 22.9149 33.0725H24.0615V32.9725H26.3548V33.0725H28.648V32.9725H30.9412V33.0725H33.2345V32.9725H35.5277V33.0725H36.6744H36.8055L36.7708 32.9461L36.5383 32.0995L36.4418 32.126L35.9768 30.4329L36.0732 30.4064L35.6082 28.7133L35.5118 28.7398L35.0467 27.0467L35.1431 27.0203L34.9106 26.1737Z" stroke="#4F92FF" stroke-width="0.2" stroke-dasharray="2 2"/>
</g>
<defs>
<filter id="filter0_d_168_641" x="0" y="0.126709" width="46.8733" height="46.8732" filterUnits="userSpaceOnUse" color-interpolation-filters="sRGB">
<feFlood flood-opacity="0" result="BackgroundImageFix"/>
<feColorMatrix in="SourceAlpha" type="matrix" values="0 0 0 0 0 0 0 0 0 0 0 0 0 0 0 0 0 0 127 0" result="hardAlpha"/>
<feOffset dy="4"/>
<feGaussianBlur stdDeviation="2"/>
<feComposite in2="hardAlpha" operator="out"/>
<feColorMatrix type="matrix" values="0 0 0 0 0.0833333 0 0 0 0 0.0833333 0 0 0 0 0.0833333 0 0 0 0.37 0"/>
<feBlend mode="normal" in2="BackgroundImageFix" result="effect1_dropShadow_168_641"/>
<feBlend mode="normal" in="SourceGraphic" in2="effect1_dropShadow_168_641" result="shape"/>
</filter>
</defs>
</svg>
