<svg width="17" height="17" viewBox="0 0 17 17" fill="none" xmlns="http://www.w3.org/2000/svg">
<path d="M4.76259 0.691528H1.72068C1.24267 0.691528 0.851562 1.08263 0.851562 1.56065C0.851562 9.72166 7.46554 16.3356 15.6266 16.3356C16.1046 16.3356 16.4957 15.9445 16.4957 15.4665V12.4333C16.4957 11.9553 16.1046 11.5642 15.6266 11.5642C14.5489 11.5642 13.4972 11.3904 12.5238 11.0688C12.4369 11.034 12.3413 11.0253 12.2544 11.0253C12.0284 11.0253 11.8111 11.1122 11.6373 11.2774L9.72525 13.1894C7.26565 11.9292 5.2493 9.92155 3.99777 7.46195L5.90982 5.54989C6.15318 5.30654 6.22271 4.96759 6.1271 4.66339C5.80553 3.68998 5.63171 2.64704 5.63171 1.56065C5.63171 1.08263 5.2406 0.691528 4.76259 0.691528Z" fill="white"/>
</svg>
