<svg width="14" height="14" viewBox="0 0 14 14" fill="none" xmlns="http://www.w3.org/2000/svg">
<path d="M1.75913 5.65099L1.75901 5.6507C1.49164 5.01875 1.35425 4.39645 1.35425 3.81496C1.35425 3.44208 1.41756 3.08952 1.5528 2.75418C1.68383 2.42057 1.89199 2.11689 2.1839 1.84348C2.50271 1.53194 2.85912 1.35413 3.26091 1.35413C3.39919 1.35413 3.53238 1.38658 3.65279 1.43925L3.65833 1.44168L3.6583 1.44175C3.78581 1.50125 3.88912 1.588 3.97185 1.70382L3.97252 1.70476L3.97252 1.70476L5.32447 3.61614C5.412 3.73513 5.48692 3.85591 5.53745 3.97142L5.53922 3.97546L5.53918 3.97547C5.57409 4.05924 5.60508 4.16437 5.60508 4.25829C5.60508 4.37065 5.57032 4.4789 5.50516 4.58548C5.43391 4.70608 5.33296 4.83207 5.20697 4.95829L4.77112 5.41157L4.76772 5.4151L4.76769 5.41507C4.67009 5.51267 4.61925 5.63517 4.61925 5.78079C4.61925 5.8302 4.62488 5.88066 4.65397 5.99445L4.71261 6.14105C4.82374 6.34414 5.00713 6.59875 5.27051 6.907C5.56385 7.24633 5.8455 7.551 6.12707 7.83838C6.49067 8.19615 6.78902 8.47142 7.06297 8.70543C7.36038 8.95793 7.62268 9.14298 7.83948 9.26037L7.98018 9.3229C8.165 9.3881 8.40688 9.34783 8.55761 9.20139C8.55778 9.20123 8.55795 9.20107 8.55812 9.2009L8.99914 8.76568C8.99934 8.76548 8.99954 8.76528 8.99974 8.76508C9.12059 8.64428 9.24486 8.53719 9.39228 8.4615C9.50608 8.39248 9.62158 8.34597 9.75029 8.3564C9.81255 8.36145 9.86361 8.37889 9.90049 8.39359C9.91798 8.40056 9.93505 8.40809 9.9483 8.41393L9.94929 8.41437C9.96385 8.42079 9.97566 8.42599 9.98807 8.43107L9.9886 8.43129C10.108 8.48046 10.2291 8.54852 10.3576 8.63848L10.3591 8.63952L12.2941 10.015C12.4452 10.1189 12.5055 10.2185 12.5379 10.2832L12.5429 10.2933L12.5427 10.2934C12.6036 10.4304 12.6284 10.5583 12.6284 10.6866C12.6284 10.8771 12.5844 11.0652 12.4993 11.2429C12.4991 11.2433 12.499 11.2436 12.4988 11.244L12.2734 11.1358C12.1859 11.3225 12.0809 11.48 11.9467 11.6258L1.75913 5.65099ZM1.75913 5.65099C2.02995 6.28893 2.40738 6.94702 2.88373 7.602C3.35801 8.25414 3.89708 8.88792 4.48909 9.48585L4.49086 9.48762C5.08295 10.0738 5.72247 10.6186 6.38021 11.0986C7.02347 11.5691 7.68761 11.9526 8.34944 12.2294C9.37977 12.6691 10.3875 12.7906 11.2433 12.4343C11.5772 12.2967 11.8699 12.0874 12.1321 11.7935L1.75913 5.65099ZM7.86038 8.84239L7.80089 9.0952L8.2775 9.24243L8.435 8.83409L8.4514 8.79158L8.73897 8.50795L8.74019 8.50674C8.90865 8.33828 9.06326 8.22193 9.20327 8.14951L9.21175 8.14513L9.21987 8.14011C9.46698 7.98735 9.78983 7.95352 10.1293 8.09389C10.2644 8.15109 10.4118 8.22981 10.5718 8.34175C10.5721 8.34192 10.5723 8.3421 10.5725 8.34227L12.5077 9.71789L12.5077 9.71795L12.5126 9.72127C12.6911 9.84186 12.8148 9.99084 12.8878 10.1628C12.9645 10.358 12.9976 10.5303 12.9976 10.6983C12.9976 10.9399 12.9422 11.184 12.8344 11.4151C12.7225 11.6549 12.5849 11.861 12.41 12.0519L12.4089 12.0531C12.0983 12.3963 11.7671 12.6348 11.3867 12.7881L11.3861 12.7883C11.0136 12.9395 10.608 13.0208 10.1792 13.0208C9.56003 13.0208 8.8991 12.8728 8.20586 12.5797C7.52597 12.2907 6.83668 11.8925 6.16134 11.4061C5.48925 10.9121 4.83987 10.3604 4.22477 9.75692C3.61603 9.14231 3.06474 8.49337 2.57669 7.82743C2.08421 7.14011 1.69189 6.45668 1.41466 5.80046C1.12205 5.1026 0.979248 4.43557 0.979248 3.81496C0.979248 3.39051 1.05531 2.98991 1.2011 2.61721C1.35014 2.23941 1.59076 1.88516 1.92077 1.57679L1.92083 1.57686L1.9257 1.57205C2.33426 1.1688 2.78652 0.979126 3.26091 0.979126C3.45204 0.979126 3.64898 1.02368 3.81363 1.10116L3.81363 1.10117L3.81532 1.10195C4.0043 1.18917 4.15967 1.31753 4.27207 1.48613L4.27198 1.48619L4.27619 1.49212L5.62952 3.39962L5.62951 3.39963L5.63093 3.40159C5.74416 3.55795 5.82597 3.70283 5.88073 3.84221L5.88059 3.84226L5.88403 3.85019C5.9489 3.99991 5.98008 4.14105 5.98008 4.26996C5.98008 4.44147 5.93085 4.61332 5.82904 4.783L5.82892 4.78293L5.82487 4.79022C5.75198 4.92143 5.6342 5.07228 5.4758 5.23068L5.47576 5.23064L5.47203 5.23454L5.07536 5.6487L4.97106 5.75762L5.01874 5.90068C5.03022 5.93511 5.04251 5.95968 5.04927 5.97319L5.04981 5.97426L5.04946 5.97443L5.05635 5.98649C5.13599 6.12585 5.28589 6.34861 5.56144 6.67208L5.56142 6.67209L5.5636 6.67459C5.85071 7.0027 6.12253 7.30417 6.39558 7.58316L6.39555 7.58319L6.39899 7.58657C6.74423 7.92596 7.03592 8.2001 7.31245 8.42861C7.5404 8.62052 7.72033 8.75293 7.86038 8.84239Z" stroke="white" stroke-width="0.5"/>
</svg>
