<svg width="172" height="133" viewBox="0 0 172 133" fill="none" xmlns="http://www.w3.org/2000/svg">
<rect x="181.5" y="132.5" width="181" height="132" rx="4.5" transform="rotate(-180 181.5 132.5)" stroke="#CFC5F7"/>
<path d="M172 117L172 133L5 133C2.23857 133 -6.01531e-07 130.761 -4.80826e-07 128L0 117L172 117Z" fill="#CFC5F7"/>
<path d="M17.16 128.14C16.4267 128.14 15.7667 127.987 15.18 127.68C14.6 127.367 14.1433 126.933 13.81 126.38C13.4767 125.827 13.31 125.2 13.31 124.5C13.31 123.8 13.4767 123.173 13.81 122.62C14.1433 122.067 14.6 121.637 15.18 121.33C15.7667 121.017 16.4267 120.86 17.16 120.86C17.8 120.86 18.3767 120.973 18.89 121.2C19.4033 121.427 19.83 121.753 20.17 122.18L18.91 123.32C18.4567 122.773 17.9067 122.5 17.26 122.5C16.88 122.5 16.54 122.583 16.24 122.75C15.9467 122.917 15.7167 123.153 15.55 123.46C15.39 123.76 15.31 124.107 15.31 124.5C15.31 124.893 15.39 125.243 15.55 125.55C15.7167 125.85 15.9467 126.083 16.24 126.25C16.54 126.417 16.88 126.5 17.26 126.5C17.9067 126.5 18.4567 126.227 18.91 125.68L20.17 126.82C19.83 127.247 19.4033 127.573 18.89 127.8C18.3767 128.027 17.8 128.14 17.16 128.14ZM23.8945 125.32H22.9945L22.9945 128L21.0245 128L21.0245 121H22.9945L22.9945 123.72H23.9445L25.6145 121H27.6945L25.5045 124.38L27.7145 128H25.4845L23.8945 125.32ZM31.7505 128.14C31.0105 128.14 30.3439 127.983 29.7505 127.67C29.1639 127.357 28.7005 126.923 28.3605 126.37C28.0272 125.817 27.8605 125.193 27.8605 124.5C27.8605 123.807 28.0272 123.183 28.3605 122.63C28.7005 122.077 29.1639 121.643 29.7505 121.33C30.3439 121.017 31.0105 120.86 31.7505 120.86C32.4905 120.86 33.1539 121.017 33.7405 121.33C34.3339 121.643 34.7972 122.077 35.1305 122.63C35.4705 123.183 35.6405 123.807 35.6405 124.5C35.6405 125.193 35.4705 125.817 35.1305 126.37C34.7972 126.923 34.3339 127.357 33.7405 127.67C33.1539 127.983 32.4905 128.14 31.7505 128.14ZM31.7505 126.5C32.1039 126.5 32.4239 126.417 32.7105 126.25C32.9972 126.083 33.2239 125.85 33.3905 125.55C33.5572 125.243 33.6405 124.893 33.6405 124.5C33.6405 124.107 33.5572 123.76 33.3905 123.46C33.2239 123.153 32.9972 122.917 32.7105 122.75C32.4239 122.583 32.1039 122.5 31.7505 122.5C31.3972 122.5 31.0772 122.583 30.7905 122.75C30.5039 122.917 30.2772 123.153 30.1105 123.46C29.9439 123.76 29.8605 124.107 29.8605 124.5C29.8605 124.893 29.9439 125.243 30.1105 125.55C30.2772 125.85 30.5039 126.083 30.7905 126.25C31.0772 126.417 31.3972 126.5 31.7505 126.5ZM39.8992 121C40.5326 121 41.0826 121.107 41.5492 121.32C42.0159 121.527 42.3759 121.827 42.6292 122.22C42.8826 122.607 43.0092 123.063 43.0092 123.59C43.0092 124.117 42.8826 124.573 42.6292 124.96C42.3759 125.347 42.0159 125.647 41.5492 125.86C41.0826 126.067 40.5326 126.17 39.8992 126.17H38.6792V128L36.6992 128L36.6992 121H39.8992ZM39.7792 124.61C40.1859 124.61 40.4926 124.523 40.6992 124.35C40.9059 124.17 41.0092 123.917 41.0092 123.59C41.0092 123.263 40.9059 123.01 40.6992 122.83C40.4926 122.65 40.1859 122.56 39.7792 122.56H38.6792L38.6792 124.61H39.7792ZM47.4439 128.14C46.7039 128.14 46.0372 127.983 45.4439 127.67C44.8572 127.357 44.3939 126.923 44.0539 126.37C43.7206 125.817 43.5539 125.193 43.5539 124.5C43.5539 123.807 43.7206 123.183 44.0539 122.63C44.3939 122.077 44.8572 121.643 45.4439 121.33C46.0372 121.017 46.7039 120.86 47.4439 120.86C48.1839 120.86 48.8472 121.017 49.4339 121.33C50.0272 121.643 50.4906 122.077 50.8239 122.63C51.1639 123.183 51.3339 123.807 51.3339 124.5C51.3339 125.193 51.1639 125.817 50.8239 126.37C50.4906 126.923 50.0272 127.357 49.4339 127.67C48.8472 127.983 48.1839 128.14 47.4439 128.14ZM47.4439 126.5C47.7972 126.5 48.1172 126.417 48.4039 126.25C48.6906 126.083 48.9172 125.85 49.0839 125.55C49.2506 125.243 49.3339 124.893 49.3339 124.5C49.3339 124.107 49.2506 123.76 49.0839 123.46C48.9172 123.153 48.6906 122.917 48.4039 122.75C48.1172 122.583 47.7972 122.5 47.4439 122.5C47.0906 122.5 46.7706 122.583 46.4839 122.75C46.1972 122.917 45.9706 123.153 45.8039 123.46C45.6372 123.76 45.5539 124.107 45.5539 124.5C45.5539 124.893 45.6372 125.243 45.8039 125.55C45.9706 125.85 46.1972 126.083 46.4839 126.25C46.7706 126.417 47.0906 126.5 47.4439 126.5Z" fill="#FDEDBA"/>
<path d="M65.16 128.14C64.4267 128.14 63.7667 127.987 63.18 127.68C62.6 127.367 62.1433 126.933 61.81 126.38C61.4767 125.827 61.31 125.2 61.31 124.5C61.31 123.8 61.4767 123.173 61.81 122.62C62.1433 122.067 62.6 121.637 63.18 121.33C63.7667 121.017 64.4267 120.86 65.16 120.86C65.8 120.86 66.3767 120.973 66.89 121.2C67.4033 121.427 67.83 121.753 68.17 122.18L66.91 123.32C66.4567 122.773 65.9067 122.5 65.26 122.5C64.88 122.5 64.54 122.583 64.24 122.75C63.9467 122.917 63.7167 123.153 63.55 123.46C63.39 123.76 63.31 124.107 63.31 124.5C63.31 124.893 63.39 125.243 63.55 125.55C63.7167 125.85 63.9467 126.083 64.24 126.25C64.54 126.417 64.88 126.5 65.26 126.5C65.9067 126.5 66.4567 126.227 66.91 125.68L68.17 126.82C67.83 127.247 67.4033 127.573 66.89 127.8C66.3767 128.027 65.8 128.14 65.16 128.14ZM71.8945 125.32H70.9945V128L69.0245 128L69.0245 121H70.9945V123.72H71.9445L73.6145 121H75.6945L73.5045 124.38L75.7145 128H73.4845L71.8945 125.32ZM79.7505 128.14C79.0105 128.14 78.3439 127.983 77.7505 127.67C77.1639 127.357 76.7005 126.923 76.3605 126.37C76.0272 125.817 75.8605 125.193 75.8605 124.5C75.8605 123.807 76.0272 123.183 76.3605 122.63C76.7005 122.077 77.1639 121.643 77.7505 121.33C78.3439 121.017 79.0105 120.86 79.7505 120.86C80.4905 120.86 81.1539 121.017 81.7405 121.33C82.3339 121.643 82.7972 122.077 83.1305 122.63C83.4705 123.183 83.6405 123.807 83.6405 124.5C83.6405 125.193 83.4705 125.817 83.1305 126.37C82.7972 126.923 82.3339 127.357 81.7405 127.67C81.1539 127.983 80.4905 128.14 79.7505 128.14ZM79.7505 126.5C80.1039 126.5 80.4239 126.417 80.7105 126.25C80.9972 126.083 81.2239 125.85 81.3905 125.55C81.5572 125.243 81.6405 124.893 81.6405 124.5C81.6405 124.107 81.5572 123.76 81.3905 123.46C81.2239 123.153 80.9972 122.917 80.7105 122.75C80.4239 122.583 80.1039 122.5 79.7505 122.5C79.3972 122.5 79.0772 122.583 78.7905 122.75C78.5039 122.917 78.2772 123.153 78.1105 123.46C77.9439 123.76 77.8605 124.107 77.8605 124.5C77.8605 124.893 77.9439 125.243 78.1105 125.55C78.2772 125.85 78.5039 126.083 78.7905 126.25C79.0772 126.417 79.3972 126.5 79.7505 126.5ZM87.8992 121C88.5326 121 89.0826 121.107 89.5492 121.32C90.0159 121.527 90.3759 121.827 90.6292 122.22C90.8826 122.607 91.0092 123.063 91.0092 123.59C91.0092 124.117 90.8826 124.573 90.6292 124.96C90.3759 125.347 90.0159 125.647 89.5492 125.86C89.0826 126.067 88.5326 126.17 87.8992 126.17H86.6792V128L84.6992 128L84.6992 121H87.8992ZM87.7792 124.61C88.1859 124.61 88.4926 124.523 88.6992 124.35C88.9059 124.17 89.0092 123.917 89.0092 123.59C89.0092 123.263 88.9059 123.01 88.6992 122.83C88.4926 122.65 88.1859 122.56 87.7792 122.56H86.6792V124.61H87.7792ZM95.4439 128.14C94.7039 128.14 94.0372 127.983 93.4439 127.67C92.8572 127.357 92.3939 126.923 92.0539 126.37C91.7206 125.817 91.5539 125.193 91.5539 124.5C91.5539 123.807 91.7206 123.183 92.0539 122.63C92.3939 122.077 92.8572 121.643 93.4439 121.33C94.0372 121.017 94.7039 120.86 95.4439 120.86C96.1839 120.86 96.8472 121.017 97.4339 121.33C98.0272 121.643 98.4906 122.077 98.8239 122.63C99.1639 123.183 99.3339 123.807 99.3339 124.5C99.3339 125.193 99.1639 125.817 98.8239 126.37C98.4906 126.923 98.0272 127.357 97.4339 127.67C96.8472 127.983 96.1839 128.14 95.4439 128.14ZM95.4439 126.5C95.7972 126.5 96.1172 126.417 96.4039 126.25C96.6906 126.083 96.9172 125.85 97.0839 125.55C97.2506 125.243 97.3339 124.893 97.3339 124.5C97.3339 124.107 97.2506 123.76 97.0839 123.46C96.9172 123.153 96.6906 122.917 96.4039 122.75C96.1172 122.583 95.7972 122.5 95.4439 122.5C95.0906 122.5 94.7706 122.583 94.4839 122.75C94.1972 122.917 93.9706 123.153 93.8039 123.46C93.6372 123.76 93.5539 124.107 93.5539 124.5C93.5539 124.893 93.6372 125.243 93.8039 125.55C93.9706 125.85 94.1972 126.083 94.4839 126.25C94.7706 126.417 95.0906 126.5 95.4439 126.5Z" fill="#FDEDBA"/>
<path d="M114.16 128.14C113.427 128.14 112.767 127.987 112.18 127.68C111.6 127.367 111.143 126.933 110.81 126.38C110.477 125.827 110.31 125.2 110.31 124.5C110.31 123.8 110.477 123.173 110.81 122.62C111.143 122.067 111.6 121.637 112.18 121.33C112.767 121.017 113.427 120.86 114.16 120.86C114.8 120.86 115.377 120.973 115.89 121.2C116.403 121.427 116.83 121.753 117.17 122.18L115.91 123.32C115.457 122.773 114.907 122.5 114.26 122.5C113.88 122.5 113.54 122.583 113.24 122.75C112.947 122.917 112.717 123.153 112.55 123.46C112.39 123.76 112.31 124.107 112.31 124.5C112.31 124.893 112.39 125.243 112.55 125.55C112.717 125.85 112.947 126.083 113.24 126.25C113.54 126.417 113.88 126.5 114.26 126.5C114.907 126.5 115.457 126.227 115.91 125.68L117.17 126.82C116.83 127.247 116.403 127.573 115.89 127.8C115.377 128.027 114.8 128.14 114.16 128.14ZM120.894 125.32H119.994V128L118.024 128L118.024 121H119.994V123.72H120.944L122.614 121H124.694L122.504 124.38L124.714 128H122.484L120.894 125.32ZM128.751 128.14C128.011 128.14 127.344 127.983 126.751 127.67C126.164 127.357 125.701 126.923 125.361 126.37C125.027 125.817 124.861 125.193 124.861 124.5C124.861 123.807 125.027 123.183 125.361 122.63C125.701 122.077 126.164 121.643 126.751 121.33C127.344 121.017 128.011 120.86 128.751 120.86C129.491 120.86 130.154 121.017 130.741 121.33C131.334 121.643 131.797 122.077 132.131 122.63C132.471 123.183 132.641 123.807 132.641 124.5C132.641 125.193 132.471 125.817 132.131 126.37C131.797 126.923 131.334 127.357 130.741 127.67C130.154 127.983 129.491 128.14 128.751 128.14ZM128.751 126.5C129.104 126.5 129.424 126.417 129.711 126.25C129.997 126.083 130.224 125.85 130.391 125.55C130.557 125.243 130.641 124.893 130.641 124.5C130.641 124.107 130.557 123.76 130.391 123.46C130.224 123.153 129.997 122.917 129.711 122.75C129.424 122.583 129.104 122.5 128.751 122.5C128.397 122.5 128.077 122.583 127.791 122.75C127.504 122.917 127.277 123.153 127.111 123.46C126.944 123.76 126.861 124.107 126.861 124.5C126.861 124.893 126.944 125.243 127.111 125.55C127.277 125.85 127.504 126.083 127.791 126.25C128.077 126.417 128.397 126.5 128.751 126.5ZM136.899 121C137.533 121 138.083 121.107 138.549 121.32C139.016 121.527 139.376 121.827 139.629 122.22C139.883 122.607 140.009 123.063 140.009 123.59C140.009 124.117 139.883 124.573 139.629 124.96C139.376 125.347 139.016 125.647 138.549 125.86C138.083 126.067 137.533 126.17 136.899 126.17H135.679V128L133.699 128V121H136.899ZM136.779 124.61C137.186 124.61 137.493 124.523 137.699 124.35C137.906 124.17 138.009 123.917 138.009 123.59C138.009 123.263 137.906 123.01 137.699 122.83C137.493 122.65 137.186 122.56 136.779 122.56H135.679V124.61H136.779ZM144.444 128.14C143.704 128.14 143.037 127.983 142.444 127.67C141.857 127.357 141.394 126.923 141.054 126.37C140.721 125.817 140.554 125.193 140.554 124.5C140.554 123.807 140.721 123.183 141.054 122.63C141.394 122.077 141.857 121.643 142.444 121.33C143.037 121.017 143.704 120.86 144.444 120.86C145.184 120.86 145.847 121.017 146.434 121.33C147.027 121.643 147.491 122.077 147.824 122.63C148.164 123.183 148.334 123.807 148.334 124.5C148.334 125.193 148.164 125.817 147.824 126.37C147.491 126.923 147.027 127.357 146.434 127.67C145.847 127.983 145.184 128.14 144.444 128.14ZM144.444 126.5C144.797 126.5 145.117 126.417 145.404 126.25C145.691 126.083 145.917 125.85 146.084 125.55C146.251 125.243 146.334 124.893 146.334 124.5C146.334 124.107 146.251 123.76 146.084 123.46C145.917 123.153 145.691 122.917 145.404 122.75C145.117 122.583 144.797 122.5 144.444 122.5C144.091 122.5 143.771 122.583 143.484 122.75C143.197 122.917 142.971 123.153 142.804 123.46C142.637 123.76 142.554 124.107 142.554 124.5C142.554 124.893 142.637 125.243 142.804 125.55C142.971 125.85 143.197 126.083 143.484 126.25C143.771 126.417 144.091 126.5 144.444 126.5Z" fill="#FDEDBA"/>
<line y1="-0.5" x2="5.9492" y2="-0.5" transform="matrix(-0.644478 -0.764623 0.699239 -0.714888 57.8342 123.549)" stroke="white"/>
<line y1="-0.5" x2="5.9492" y2="-0.5" transform="matrix(-0.644478 -0.764623 0.699239 -0.714888 57.8342 123.549)" stroke="white"/>
<line y1="-0.5" x2="5.9492" y2="-0.5" transform="matrix(-0.644478 -0.764623 0.699239 -0.714888 57.8342 123.549)" stroke="white"/>
<line y1="-0.5" x2="5.9492" y2="-0.5" transform="matrix(-0.644478 -0.764623 0.699239 -0.714888 57.9199 130.286)" stroke="white"/>
<line y1="-0.5" x2="5.9492" y2="-0.5" transform="matrix(-0.644478 -0.764623 0.699239 -0.714888 57.9199 130.286)" stroke="white"/>
<line y1="-0.5" x2="5.9492" y2="-0.5" transform="matrix(-0.644478 -0.764623 0.699239 -0.714888 57.9199 130.286)" stroke="white"/>
<line y1="-0.5" x2="5.9492" y2="-0.5" transform="matrix(-0.644478 -0.764623 0.699239 -0.714888 58 127.138)" stroke="white"/>
<line y1="-0.5" x2="5.9492" y2="-0.5" transform="matrix(-0.644478 -0.764623 0.699239 -0.714888 58 127.138)" stroke="white"/>
<line y1="-0.5" x2="5.9492" y2="-0.5" transform="matrix(-0.644478 -0.764623 0.699239 -0.714888 58 127.138)" stroke="white"/>
<line y1="-0.5" x2="5.9492" y2="-0.5" transform="matrix(-0.644478 -0.764623 0.699239 -0.714888 106.834 123.549)" stroke="white"/>
<line y1="-0.5" x2="5.9492" y2="-0.5" transform="matrix(-0.644478 -0.764623 0.699239 -0.714888 106.834 123.549)" stroke="white"/>
<line y1="-0.5" x2="5.9492" y2="-0.5" transform="matrix(-0.644478 -0.764623 0.699239 -0.714888 106.834 123.549)" stroke="white"/>
<line y1="-0.5" x2="5.9492" y2="-0.5" transform="matrix(-0.644478 -0.764623 0.699239 -0.714888 106.92 130.286)" stroke="white"/>
<line y1="-0.5" x2="5.9492" y2="-0.5" transform="matrix(-0.644478 -0.764623 0.699239 -0.714888 106.92 130.286)" stroke="white"/>
<line y1="-0.5" x2="5.9492" y2="-0.5" transform="matrix(-0.644478 -0.764623 0.699239 -0.714888 106.92 130.286)" stroke="white"/>
<line y1="-0.5" x2="5.9492" y2="-0.5" transform="matrix(-0.644478 -0.764623 0.699239 -0.714888 107 127.138)" stroke="white"/>
<line y1="-0.5" x2="5.9492" y2="-0.5" transform="matrix(-0.644478 -0.764623 0.699239 -0.714888 107 127.138)" stroke="white"/>
<line y1="-0.5" x2="5.9492" y2="-0.5" transform="matrix(-0.644478 -0.764623 0.699239 -0.714888 107 127.138)" stroke="white"/>
</svg>
