<svg width="19" height="17" viewBox="0 0 19 17" fill="none" xmlns="http://www.w3.org/2000/svg">
<path d="M0.75364 8.3157L5.00424 9.89972L6.66123 15.2278C6.73328 15.5878 7.16554 15.6598 7.45372 15.4438L9.83115 13.4998C10.0473 13.2838 10.4075 13.2838 10.6957 13.4998L14.9463 16.5958C15.2344 16.8118 15.6667 16.6678 15.7387 16.3078L18.9087 1.18762C18.9807 0.827612 18.6205 0.467612 18.2603 0.611613L0.75364 7.37969C0.321378 7.52369 0.321378 8.17169 0.75364 8.3157ZM6.44511 9.1077L14.8022 3.99565C14.9462 3.92365 15.0903 4.13965 14.9463 4.21165L8.10211 10.6197C7.88597 10.8357 7.66984 11.1237 7.66984 11.4837L7.45372 13.2118C7.45372 13.4278 7.09349 13.4998 7.02145 13.2118L6.15692 10.0437C5.94079 9.68371 6.08489 9.2517 6.44511 9.1077Z" fill="white"/>
</svg>
