<svg width="14" height="14" viewBox="0 0 14 14" fill="none" xmlns="http://www.w3.org/2000/svg">
<path d="M7 13C10.3137 13 13 10.3137 13 7C13 3.68629 10.3137 1 7 1C3.68629 1 1 3.68629 1 7C1 10.3137 3.68629 13 7 13Z" stroke="white"/>
<path d="M7.21422 7.85714C8.27934 7.85714 9.14279 6.99369 9.14279 5.92857C9.14279 4.86345 8.27934 4 7.21422 4C6.1491 4 5.28564 4.86345 5.28564 5.92857C5.28564 6.99369 6.1491 7.85714 7.21422 7.85714Z" stroke="white" stroke-linecap="round"/>
<path d="M10.8571 11.2857C10.6296 10.6709 10.1282 10.1277 9.43086 9.74025C8.73349 9.35283 7.87901 9.14282 6.99997 9.14282C6.12092 9.14282 5.26644 9.35283 4.56905 9.74025C3.87166 10.1277 3.37034 10.6709 3.14282 11.2857" stroke="white" stroke-linecap="round"/>
</svg>
