<svg width="20" height="20" viewBox="0 0 20 20" fill="none" xmlns="http://www.w3.org/2000/svg">
<path d="M17.0217 3.07364C15.1931 1.25146 12.7551 0.239136 10.1816 0.239136C4.83146 0.239136 0.497166 4.55838 0.497166 9.88996C0.497166 11.5772 0.971231 13.2644 1.78391 14.6816L0.429443 19.6758L5.57642 18.326C6.99862 19.0684 8.55625 19.4733 10.1816 19.4733C15.5318 19.4733 19.8661 15.154 19.8661 9.82247C19.7983 7.3254 18.8502 4.89583 17.0217 3.07364ZM14.8545 13.3319C14.6514 13.8718 13.7032 14.4117 13.2292 14.4792C12.8228 14.5466 12.281 14.5466 11.7393 14.4117C11.4006 14.2767 10.9266 14.1417 10.3848 13.8718C7.94674 12.8594 6.38911 10.4299 6.25366 10.2274C6.11821 10.0924 5.23781 8.94512 5.23781 7.73033C5.23781 6.51554 5.84732 5.97564 6.05049 5.70568C6.25366 5.43573 6.52455 5.43573 6.72772 5.43573C6.86317 5.43573 7.06634 5.43573 7.20178 5.43573C7.33723 5.43573 7.5404 5.36824 7.74357 5.84066C7.94674 6.31308 8.4208 7.52787 8.48853 7.59536C8.55625 7.73033 8.55625 7.86531 8.48853 8.00029C8.4208 8.13526 8.35308 8.27024 8.21763 8.40522C8.08219 8.54019 7.94674 8.74266 7.87902 8.81015C7.74357 8.94512 7.60813 9.0801 7.74357 9.28256C7.87902 9.55252 8.35308 10.2949 9.09804 10.9698C10.0462 11.7796 10.7911 12.0496 11.062 12.1846C11.3329 12.3195 11.4684 12.252 11.6038 12.1171C11.7393 11.9821 12.2133 11.4422 12.3488 11.1722C12.4842 10.9023 12.6874 10.9698 12.8906 11.0373C13.0937 11.1047 14.3127 11.7121 14.5159 11.8471C14.7868 11.9821 14.9223 12.0496 14.99 12.1171C15.0577 12.3195 15.0577 12.792 14.8545 13.3319Z" fill="white"/>
</svg>
